<?xml version="1.0" encoding="UTF-8" standalone="no"?>
<svg width="55px" height="47px" viewBox="0 0 55 47" version="1.1" xmlns="http://www.w3.org/2000/svg" xmlns:xlink="http://www.w3.org/1999/xlink" xmlns:sketch="http://www.bohemiancoding.com/sketch/ns">
    <!-- Generator: Sketch 3.0.1 (7597) - http://www.bohemiancoding.com/sketch -->
    <title>feedback</title>
    <description>Created with Sketch.</description>
    <defs></defs>
    <g id="homepage" stroke="none" stroke-width="1" fill="none" fill-rule="evenodd" sketch:type="MSPage">
        <g id="1a-home" sketch:type="MSArtboardGroup" transform="translate(-747.000000, -137.000000)" fill="#FFFFFF">
            <path d="M768,161 C768,157.13425 771.13425,154 775,154 C778.86575,154 782,157.13425 782,161 C782,164.86575 778.86575,168 775,168 C771.13425,168 768,164.86575 768,161 L768,161 Z M783,145 C788.359801,147.981583 792,153.805537 792,160.5 C792,167.194463 788.359801,173.018417 783,176 C785.365528,172.139097 786.846345,166.623522 786.846345,160.5 C786.846345,154.376478 785.365528,148.860903 783,145 L783,145 Z M762.153655,160.5 C762.153655,166.623522 763.634472,172.139097 766,176 C760.640199,173.018417 757,167.194463 757,160.5 C757,153.805537 760.640199,147.981583 766,145 C763.634472,148.860903 762.153655,154.376478 762.153655,160.5 L762.153655,160.5 Z M752.273834,160.5 C752.273834,169.857498 755.262339,178.255207 760,184 C752.182421,179.049514 747,170.374842 747,160.5 C747,150.625158 752.182421,141.950486 760,137 C755.262339,142.744793 752.273834,151.142502 752.273834,160.5 L752.273834,160.5 Z M789,137 C796.817579,141.950486 802,150.625158 802,160.5 C802,170.374842 796.817579,179.049514 789,184 C793.737661,178.255207 796.726166,169.857498 796.726166,160.5 C796.726166,151.142502 793.737661,142.744793 789,137 L789,137 Z" id="feedback" sketch:type="MSShapeGroup"></path>
        </g>
    </g>
</svg>