<?xml version="1.0" encoding="UTF-8" standalone="no"?>
<svg width="55px" height="55px" viewBox="0 0 55 55" version="1.1" xmlns="http://www.w3.org/2000/svg" xmlns:xlink="http://www.w3.org/1999/xlink" xmlns:sketch="http://www.bohemiancoding.com/sketch/ns">
    <!-- Generator: Sketch 3.0.1 (7597) - http://www.bohemiancoding.com/sketch -->
    <title>share</title>
    <description>Created with Sketch.</description>
    <defs></defs>
    <g id="homepage" stroke="none" stroke-width="1" fill="none" fill-rule="evenodd" sketch:type="MSPage">
        <g id="1a-home" sketch:type="MSArtboardGroup" transform="translate(-572.000000, -133.000000)" fill="#FFFFFF">
            <path d="M617.833906,169.664375 C615.083906,169.664375 612.641562,170.907031 610.958906,172.832031 L594.175313,164.439375 C594.630781,163.207031 594.917812,161.88875 594.917812,160.498281 C594.917812,159.107812 594.630781,157.789531 594.175313,156.557187 L610.958906,148.164531 C612.641562,150.089531 615.083906,151.332188 617.833906,151.332188 C622.88875,151.332188 627,147.219219 627,142.166094 C627,137.112969 622.88875,133 617.833906,133 C612.779063,133 608.667812,137.112969 608.667812,142.166094 C608.667812,142.824375 608.743438,143.46375 608.875781,144.0825 L591.757031,152.641875 C591.763906,152.64875 591.765625,152.657344 591.7725,152.6625 C589.6825,150.447031 586.74,149.041094 583.458906,149.041094 C577.140781,149.041094 572,154.181875 572,160.5 C572,166.818125 577.140781,171.958906 583.458906,171.958906 C586.74,171.958906 589.6825,170.554688 591.7725,168.3375 C591.765625,168.342656 591.763906,168.35125 591.757031,168.358125 L608.875781,176.9175 C608.743438,177.53625 608.667812,178.175625 608.667812,178.833906 C608.667812,183.887031 612.779063,188 617.833906,188 C622.88875,188 627,183.887031 627,178.833906 C627,173.780781 622.88875,169.667813 617.833906,169.667813 L617.833906,169.664375 Z M617.5,138 C619.982002,138 622,140.01631 622,142.5 C622,144.98369 619.982002,147 617.5,147 C615.017998,147 613,144.98369 613,142.5 C613,140.01631 615.017998,138 617.5,138 L617.5,138 Z M584,168 C580.14125,168 577,164.85875 577,161 C577,157.14125 580.14125,154 584,154 C587.85875,154 591,157.14125 591,161 C591,164.85875 587.85875,168 584,168 L584,168 Z M617.5,183 C615.017998,183 613,180.98369 613,178.5 C613,176.01631 615.017998,174 617.5,174 C619.982002,174 622,176.01631 622,178.5 C622,180.98369 619.982002,183 617.5,183 L617.5,183 Z" id="share" sketch:type="MSShapeGroup"></path>
        </g>
    </g>
</svg>