<?xml version="1.0" encoding="UTF-8" standalone="no"?>
<svg width="662px" height="155px" viewBox="0 0 662 155" version="1.1" xmlns="http://www.w3.org/2000/svg" xmlns:xlink="http://www.w3.org/1999/xlink" xmlns:sketch="http://www.bohemiancoding.com/sketch/ns">
    <!-- Generator: Sketch 3.0.1 (7597) - http://www.bohemiancoding.com/sketch -->
    <title>Group</title>
    <description>Created with Sketch.</description>
    <defs>
        <polygon id="path-1" points="109 26 152.30127 51 152.30127 101 109 126 65.6987298 101 65.6987298 51 "></polygon>
        <polygon id="path-2" points="360 26 403.30127 51 403.30127 101 360 126 316.69873 101 316.69873 51 "></polygon>
        <polygon id="path-3" points="618 26 661.30127 51 661.30127 101 618 126 574.69873 101 574.69873 51 "></polygon>
    </defs>
    <g id="Page-2" stroke="none" stroke-width="1" fill="none" fill-rule="evenodd" sketch:type="MSPage">
        <g id="hompage2" sketch:type="MSArtboardGroup" transform="translate(-280.000000, -182.000000)">
            <g id="Group" sketch:type="MSLayerGroup" transform="translate(280.000000, 182.000000)">
                <text id="Upload" fill="#60A612" sketch:type="MSTextLayer" font-family="DIN" font-size="14" font-weight="bold">
                    <tspan x="87" y="152">Upload</tspan>
                </text>
                <text id="Share" fill="#60A612" sketch:type="MSTextLayer" font-family="DIN" font-size="14" font-weight="bold">
                    <tspan x="341" y="152">Share</tspan>
                </text>
                <text id="Get-Feedback" fill="#60A612" sketch:type="MSTextLayer" font-family="DIN" font-size="14" font-weight="bold">
                    <tspan x="575" y="152">Get Feedback</tspan>
                </text>
                <g id="Polygon-1">
                    <use fill="#6CB819" fill-rule="evenodd" sketch:type="MSShapeGroup" xlink:href="#path-1"></use>
                    <use fill="none" xlink:href="#path-1"></use>
                </g>
                <g id="Polygon-1-copy-2">
                    <use fill="#6CB819" fill-rule="evenodd" sketch:type="MSShapeGroup" xlink:href="#path-2"></use>
                    <use fill="none" xlink:href="#path-2"></use>
                </g>
                <g id="Polygon-1-copy-3">
                    <use fill="#6CB819" fill-rule="evenodd" sketch:type="MSShapeGroup" xlink:href="#path-3"></use>
                    <use fill="none" xlink:href="#path-3"></use>
                </g>
                <path d="M165.550781,75.9492188 C165.550781,75.9492188 256.55078,92.9492159 299.550781,75.9492188" id="Path-2" stroke="#6CB819" stroke-width="2" sketch:type="MSShapeGroup"></path>
                <path id="Path-2-decoration-1" d="M289.701028,82.1695601 C293.186297,80.1566127 296.064643,78.326411 299.29828,76.0484394 C295.405359,76.3325843 292.107432,76.4088066 288.27254,76.3420889" stroke="#6CB819" stroke-width="2"></path>
                <path d="M421.550781,74.9492187 C421.550781,74.9492187 500.550779,58.9492251 554.550781,77.9492187" id="Path-3" stroke="#6CB819" stroke-width="2" sketch:type="MSShapeGroup"></path>
                <path id="Path-3-decoration-1" d="M543.134993,77.6180397 C547.001639,77.5871635 550.318053,77.6464175 554.214278,77.8313844 C550.948538,75.6432978 548.081508,73.8396467 544.641087,71.8101418" stroke="#6CB819" stroke-width="2"></path>
                <path d="M129,54 L89,54 C86.25,54 84,56.25 84,59 L84,89 C84,91.75 86.25,93.95 89,93.95 L98.95,93.95 L98.95,89.05 L88.95,89.05 L88.95,66 L129.05,66 L129.05,89.05 L119.05,89.05 L119.05,93.9525 L129,93.9525 C131.7525,93.9525 134,91.75 134,89.0025 L134,59 C134,56.25 131.7525,54 129,54 L129,54 Z M90.5025,62.325 C89.465,62.325 88.6275,61.5075 88.6275,60.5 C88.6275,59.4925 89.465,58.675 90.5025,58.675 C91.5375,58.675 92.3775,59.4925 92.3775,60.5 C92.3775,61.5075 91.5375,62.325 90.5025,62.325 L90.5025,62.325 Z M95.5025,62.325 C94.465,62.325 93.6275,61.5075 93.6275,60.5 C93.6275,59.4925 94.465,58.675 95.5025,58.675 C96.5375,58.675 97.3775,59.4925 97.3775,60.5 C97.3775,61.5075 96.5375,62.325 95.5025,62.325 L95.5025,62.325 Z M129.0525,62.05 L98.95,62.05 L98.95,58.95 L129.05,58.95 L129.05,62.05 L129.0525,62.05 Z M108.87,71.935 L96.74,83.99 L104.24,83.99 L104.24,99 L113.5,99 L113.5,83.99 L121,83.99 L108.87,71.935 L108.87,71.935 Z" id="Shape" fill="#FFFFFF" sketch:type="MSShapeGroup"></path>
                <path d="M360,69.0726225 C356.236364,69.0726225 353.181818,72.1711816 353.181818,75.989049 C353.181818,79.8069164 356.236364,82.9054755 360,82.9054755 C363.763636,82.9054755 366.818182,79.8069164 366.818182,75.989049 C366.818182,72.1711816 363.763636,69.0726225 360,69.0726225 L360,69.0726225 Z M380.979545,69.9164265 C380.240909,69.6743516 379.575,69.2893372 379.004545,68.7798271 C378.086364,70.4951009 376.954545,72.2541787 375.734091,74.0178674 C373.836364,71.5440922 371.670455,69.0472622 369.254545,66.5965418 C366.856818,64.1642651 364.386364,61.9579251 361.922727,60.0167147 C367.779545,55.8299712 373.409091,53.3100865 377.415909,53.3100865 C379.043182,53.3100865 380.288636,53.7365994 381.115909,54.5757925 C382.015909,55.4887608 382.413636,56.9227666 382.343182,58.7394813 C382.472727,58.7302594 382.593182,58.6979827 382.725,58.6979827 C383.379545,58.6979827 384.002273,58.8340058 384.586364,59.0391931 C384.727273,56.454755 384.122727,54.3659942 382.722727,52.9435159 C381.452273,51.654755 379.668182,51.0023055 377.415909,51.0023055 C372.772727,51.0023055 366.479545,53.8126801 360.002273,58.5573487 C353.525,53.8126801 347.231818,51 342.588636,51 C342.106818,51 341.654545,51.0461095 341.215909,51.1060519 C341.836364,51.7146974 342.304545,52.4662824 342.602273,53.307781 C346.609091,53.3123919 352.234091,55.8322767 358.086364,60.0167147 C355.618182,61.962536 353.145455,64.1688761 350.75,66.6011527 C348.363636,69.0242075 346.188636,71.5348703 344.259091,74.0570605 C342.315909,71.2651297 340.713636,68.4962536 339.565909,65.8657061 C338.779545,64.0697406 338.254545,62.4213256 337.947727,60.9319885 C337.722727,60.9619597 337.504545,61.0034582 337.272727,61.0034582 C336.686364,61.0034582 336.131818,60.885879 335.6,60.7198847 C335.904545,62.5550432 336.520455,64.5884726 337.488636,66.8017291 C338.777273,69.7550432 340.590909,72.8697406 342.818182,75.9959654 C340.593182,79.1175793 338.784091,82.2322767 337.493182,85.1832853 C334.745455,91.470317 334.672727,96.3902017 337.286364,99.0414986 C338.556818,100.330259 340.340909,100.982709 342.593182,100.982709 C349.456818,100.982709 359.925,94.859366 369.263636,85.3815562 C371.656818,82.951585 373.834091,80.4340058 375.761364,77.9048991 C382.056818,86.9285303 383.861364,94.6195965 381.113636,97.4069164 C380.286364,98.2461095 379.040909,98.6726225 377.413636,98.6726225 C375.270455,98.6726225 372.652273,97.9394813 369.790909,96.6276657 C369.488636,97.3654179 369.040909,98.0201729 368.484091,98.5688761 C371.797727,100.125072 374.856818,100.978098 377.413636,100.978098 C379.665909,100.978098 381.45,100.325648 382.720455,99.0368876 C386.670455,95.0299712 384.177273,85.8242075 377.154545,75.9567723 C378.597727,73.9256484 379.915909,71.89683 380.979545,69.9164265 L380.979545,69.9164265 Z M342.593182,98.6772334 C340.965909,98.6772334 339.720455,98.2507205 338.893182,97.4115274 C337.018182,95.5095101 337.263636,91.3942363 339.570455,86.1193084 C340.718182,83.4910663 342.318182,80.7268012 344.256818,77.9348703 C346.186364,80.454755 348.359091,82.9654179 350.743182,85.3815562 C353.154545,87.8276657 355.638636,89.9948127 358.120455,91.9429395 C352.25,96.1481268 346.604545,98.6772334 342.593182,98.6772334 L342.593182,98.6772334 Z M367.656818,83.751585 C365.170455,86.2737752 362.584091,88.551585 360.011364,90.5342939 C357.431818,88.5469741 354.843182,86.2760807 352.35,83.751585 C349.863636,81.2293948 347.625,78.6126801 345.661364,75.9959654 C347.625,73.3746398 349.870455,70.7556196 352.356818,68.2311239 C354.840909,65.7089337 357.429545,63.4311239 360.004545,61.443804 C362.577273,63.4288184 365.163636,65.7066282 367.647727,68.226513 C370.229545,70.8455331 372.452273,73.448415 374.356818,75.9729107 C372.393182,78.6011527 370.15,81.2224784 367.656818,83.751585 L367.656818,83.751585 Z M382.727273,62.156196 C381.470455,62.156196 380.454545,63.1867435 380.454545,64.4616715 C380.454545,65.7365994 381.470455,66.767147 382.727273,66.767147 C383.984091,66.767147 385,65.7365994 385,64.4616715 C385,63.1867435 383.984091,62.156196 382.727273,62.156196 L382.727273,62.156196 Z M364.545455,92.1273775 C363.288636,92.1273775 362.272727,93.1579251 362.272727,94.432853 C362.272727,95.707781 363.288636,96.7383285 364.545455,96.7383285 C365.802273,96.7383285 366.818182,95.707781 366.818182,94.432853 C366.818182,93.1579251 365.802273,92.1273775 364.545455,92.1273775 L364.545455,92.1273775 Z M337.272727,57.545245 C338.529545,57.545245 339.545455,56.5146974 339.545455,55.2397695 C339.545455,53.9648415 338.529545,52.9342939 337.272727,52.9342939 C336.015909,52.9342939 335,53.9648415 335,55.2397695 C335,56.5146974 336.015909,57.545245 337.272727,57.545245 L337.272727,57.545245 Z" id="Shape" fill="#FFFFFF" sketch:type="MSShapeGroup"></path>
                <path d="M609.130435,70.3913043 C610.930435,70.3913043 612.391304,71.85 612.391304,73.6521739 C612.391304,75.4543478 610.930435,76.9130435 609.130435,76.9130435 C607.330435,76.9130435 605.869565,75.4543478 605.869565,73.6521739 C605.869565,71.85 607.330435,70.3913043 609.130435,70.3913043 L609.130435,70.3913043 Z M620,70.3913043 C621.8,70.3913043 623.26087,71.85 623.26087,73.6521739 C623.26087,75.4543478 621.8,76.9130435 620,76.9130435 C618.2,76.9130435 616.73913,75.4543478 616.73913,73.6521739 C616.73913,71.85 618.2,70.3913043 620,70.3913043 L620,70.3913043 Z M630.869565,70.3913043 C632.669565,70.3913043 634.130435,71.85 634.130435,73.6521739 C634.130435,75.4543478 632.669565,76.9130435 630.869565,76.9130435 C629.069565,76.9130435 627.608696,75.4543478 627.608696,73.6521739 C627.608696,71.85 629.069565,70.3913043 630.869565,70.3913043 L630.869565,70.3913043 Z M638.478261,53 L601.521739,53 C597.926087,53 595,55.926087 595,59.5217391 L595,85.6086957 C595,89.2043478 599.347826,89.9565217 601.521739,89.9565217 L601.521739,103 L621.086957,89.9565217 L638.478261,89.9565217 C642.073913,89.9565217 645,87.0304348 645,83.4347826 L645,59.5217391 C645,55.926087 642.073913,53 638.478261,53 L638.478261,53 Z M640.652174,83.4347826 C640.652174,84.6326087 639.676087,85.6086957 638.478261,85.6086957 L618.913043,85.6086957 L605.869565,96.4782609 L605.869565,85.6086957 L601.521739,85.6086957 C600.323913,85.6086957 599.347826,84.6326087 599.347826,83.4347826 L599.347826,59.5217391 C599.347826,58.323913 600.323913,57.3478261 601.521739,57.3478261 L638.478261,57.3478261 C639.676087,57.3478261 640.652174,58.323913 640.652174,59.5217391 L640.652174,83.4347826 L640.652174,83.4347826 Z" id="Shape" fill="#FFFFFF" sketch:type="MSShapeGroup"></path>
                <g id="Rectangle-4-+-PSD" transform="translate(32.000000, 102.000000) rotate(-18.000000) translate(-32.000000, -102.000000) translate(13.000000, 86.000000)">
                    <rect id="Rectangle-4" stroke="#72BB21" stroke-width="2" sketch:type="MSShapeGroup" x="-5.68434189e-14" y="0" width="38" height="32" rx="1"></rect>
                    <text id="PSD" fill="#68AB1E" sketch:type="MSTextLayer" font-family="DIN" font-size="14" font-weight="normal">
                        <tspan x="6" y="21">PSD</tspan>
                    </text>
                </g>
                <g id="Rectangle-4-+-PSD-copy" transform="translate(32.500000, 31.500000) rotate(-330.000000) translate(-32.500000, -31.500000) translate(7.000000, 10.000000)">
                    <rect id="Rectangle-4" stroke="#67AF19" stroke-width="2" sketch:type="MSShapeGroup" x="0" y="0" width="51" height="43" rx="1"></rect>
                    <text id="PDF" fill="#5B9B14" sketch:type="MSTextLayer" font-family="DIN" font-size="18.6666667" font-weight="normal">
                        <tspan x="8" y="27">PDF</tspan>
                    </text>
                </g>
                <g id="Rectangle-4-+-PSD-copy-3" transform="translate(189.500000, 121.000000) rotate(-334.000000) translate(-189.500000, -121.000000) translate(167.000000, 102.000000)">
                    <rect id="Rectangle-4" stroke="#6CB819" stroke-width="2" sketch:type="MSShapeGroup" x="0" y="0" width="45" height="38" rx="1"></rect>
                    <text id="AI" fill="#64AA17" sketch:type="MSTextLayer" font-family="DIN" font-size="16" font-weight="normal">
                        <tspan x="15" y="24">AI</tspan>
                    </text>
                </g>
                <g id="Rectangle-4-+-PSD-copy-4" transform="translate(181.500000, 44.000000) rotate(-19.000000) translate(-181.500000, -44.000000) translate(167.000000, 32.000000)">
                    <rect id="Rectangle-4" stroke="#6CB819" stroke-width="2" sketch:type="MSShapeGroup" x="0" y="0" width="29" height="24" rx="1"></rect>
                    <text id="JPG" fill="#599516" sketch:type="MSTextLayer" font-family="DIN" font-size="10" font-weight="normal">
                        <tspan x="5" y="15">JPG</tspan>
                    </text>
                </g>
            </g>
        </g>
    </g>
</svg>