<?xml version="1.0" encoding="UTF-8" standalone="no"?>
<svg width="59px" height="43px" viewBox="0 0 59 43" version="1.1" xmlns="http://www.w3.org/2000/svg" xmlns:xlink="http://www.w3.org/1999/xlink" xmlns:sketch="http://www.bohemiancoding.com/sketch/ns">
    <!-- Generator: Sketch 3.0.1 (7597) - http://www.bohemiancoding.com/sketch -->
    <title>upload</title>
    <description>Created with Sketch.</description>
    <defs></defs>
    <g id="homepage" stroke="none" stroke-width="1" fill="none" fill-rule="evenodd" sketch:type="MSPage">
        <g id="1a-home" sketch:type="MSArtboardGroup" transform="translate(-398.000000, -137.000000)" fill="#FFFFFF">
            <path d="M437.99825,159.99958 C437.99825,159.70796 437.904352,159.468248 437.716556,159.280445 L426.718233,148.281705 C426.530437,148.093902 426.290734,148 425.999125,148 C425.707516,148 425.467814,148.093902 425.280017,148.281705 L414.313188,159.24895 C414.104396,159.498577 414,159.748787 414,159.99958 C414,160.2912 414.093898,160.530912 414.281694,160.718715 C414.46949,160.906518 414.709193,161.00042 415.000802,161.00042 L421.999417,161.00042 L421.999417,171.99916 C421.999417,172.269784 422.098564,172.504246 422.296858,172.702548 C422.495152,172.900849 422.729606,173 423.000219,173 L428.999781,173 C429.270394,173 429.504848,172.900849 429.703142,172.702548 C429.901436,172.504246 430.000583,172.269784 430.000583,171.99916 L430.000583,161.00042 L436.999198,161.00042 C437.269811,161.00042 437.504265,160.901269 437.702559,160.702968 C437.900853,160.504666 438,160.270203 438,159.99958 L437.99825,159.99958 Z M457,168.273038 C457,171.50991 455.847625,174.273622 453.542875,176.564173 C451.238124,178.854724 448.457281,180 445.200344,180 L411.766552,180 C407.976161,180 404.734138,178.66147 402.040483,175.984409 C399.346828,173.307349 398,170.085299 398,166.31826 C398,163.671983 398.717008,161.228652 400.151024,158.988267 C401.58504,156.747882 403.510636,155.068448 405.927813,153.949966 C405.886513,153.338848 405.865864,152.901033 405.865864,152.636519 C405.865864,148.31993 407.402555,144.634981 410.475938,141.581673 C413.54932,138.528364 417.257112,137.00114 421.599312,137 C424.795446,137 427.719691,137.885893 430.372047,139.657678 C433.024403,141.429463 434.955161,143.781013 436.164324,146.712325 C437.618989,145.450185 439.319158,144.819115 441.264831,144.819115 C443.436505,144.819115 445.2904,145.582442 446.826518,147.109096 C448.362636,148.63575 449.130695,150.478225 449.130695,152.636519 C449.130695,154.183696 448.710815,155.588355 447.871055,156.850495 C450.533736,157.482136 452.720897,158.861711 454.432538,160.989222 C456.144179,163.116732 456.999426,165.544671 456.998279,168.273038 L457,168.273038 Z" id="upload" sketch:type="MSShapeGroup"></path>
        </g>
    </g>
</svg>