<?xml version="1.0" encoding="UTF-8" standalone="no"?>
<svg width="288px" height="239px" viewBox="0 0 288 239" version="1.1" xmlns="http://www.w3.org/2000/svg" xmlns:xlink="http://www.w3.org/1999/xlink" xmlns:sketch="http://www.bohemiancoding.com/sketch/ns">
    <!-- Generator: Sketch 3.0.1 (7597) - http://www.bohemiancoding.com/sketch -->
    <title>Group</title>
    <description>Created with Sketch.</description>
    <defs></defs>
    <g id="Page-2" stroke="none" stroke-width="1" fill="none" fill-rule="evenodd" sketch:type="MSPage">
        <g id="hompage2" sketch:type="MSArtboardGroup" transform="translate(-497.000000, -428.000000)">
            <g id="Group" sketch:type="MSLayerGroup" transform="translate(497.000000, 428.000000)">
                <rect id="Rectangle-1" stroke="#92E634" stroke-width="3" stroke-dasharray="14" sketch:type="MSShapeGroup" x="0" y="0" width="288" height="239" rx="6"></rect>
                <rect id="Rectangle-2" fill="#D5FCA9" sketch:type="MSShapeGroup" x="15" y="181" width="258" height="42" rx="4"></rect>
                <text id="Or-select-files" sketch:type="MSTextLayer" font-family="Helvetica" font-size="16" font-weight="normal" fill="#92E634">
                    <tspan x="96" y="207">Or select files</tspan>
                </text>
                <text id="Drag-&amp;-drop-to-uploa" sketch:type="MSTextLayer" font-family="Helvetica" font-size="16" font-weight="normal" fill="#92E634">
                    <tspan x="66" y="132">Drag &amp; drop to upload</tspan>
                </text>
                <path d="M161.25,44.4 C160.464844,44.4 159.704813,44.5302 158.942687,44.6289 C156.024,39.4608 150.626312,36 144.5,36 C138.243875,36 132.842,39.4944 129.967281,44.6142 C129.230281,44.5155 128.497469,44.4 127.75,44.4 C118.512375,44.4 111,51.9306 111,61.2 C111,70.4694 118.512375,78 127.75,78 L161.25,78 C170.491813,78 178,70.4694 178,61.2 C178,51.9306 170.491813,44.4 161.25,44.4 L161.25,44.4 Z M160.666667,69 L127.333333,69 C122.739583,69 119,65.25625 119,60.6666667 C119,56.09375 123.047917,52.5770833 127.341667,52.4479167 C127.358333,54.4166667 127.7,56.3375 128.383333,58.1604167 L136.1875,55.2479167 C135.841667,54.31875 135.666667,53.3416667 135.666667,52.3333333 C135.666667,47.74375 139.40625,44 144,44 C146.697917,44 149.13125,45.3354167 150.672917,47.41875 C146.645833,50.4625 144,55.2395833 144,60.6666667 L152.333333,60.6666667 C152.333333,56.0770833 156.077083,52.3333333 160.666667,52.3333333 C165.25625,52.3333333 169,56.0770833 169,60.6666667 C169,65.25625 165.25625,69 160.666667,69 L160.666667,69 Z M144.5,78 L132,90.5 L140.333333,90.5 L140.333333,103 L148.666667,103 L148.666667,90.5 L157,90.5 L144.5,78 Z" id="Shape" fill="#92E634" sketch:type="MSShapeGroup"></path>
            </g>
        </g>
    </g>
</svg>