<?xml version="1.0" encoding="utf-8"?>
<!-- Generated by IcoMoon.io -->
<!DOCTYPE svg PUBLIC "-//W3C//DTD SVG 1.1//EN" "http://www.w3.org/Graphics/SVG/1.1/DTD/svg11.dtd">
<svg version="1.1" xmlns="http://www.w3.org/2000/svg" xmlns:xlink="http://www.w3.org/1999/xlink" width="512" height="512" viewBox="0 0 512 512">
<g>
</g>
	<path d="M384 64c-6 0-11.808 0.992-17.632 1.744-22.304-39.376-63.552-65.744-110.368-65.744-47.808 0-89.088 26.624-111.056 65.632-5.632-0.752-11.232-1.632-16.944-1.632-70.592 0-128 57.376-128 128s57.408 128 128 128h256c70.624 0 128-57.376 128-128s-57.376-128-128-128zM384 256h-256c-35.28 0-64-28.752-64-64 0-35.12 31.088-62.128 64.064-63.12 0.128 15.12 2.752 29.872 8 43.872l59.936-22.368c-2.656-7.136-4-14.64-4-22.384 0-35.248 28.72-64 64-64 20.72 0 39.408 10.256 51.248 26.256-30.928 23.376-51.248 60.064-51.248 101.744h64c0-35.248 28.752-64 64-64s64 28.752 64 64-28.752 64-64 64zM256 320l-96 96h64v96h64v-96h64z"></path>
</svg>
